<?xml version="1.0" standalone="no"?>
<!DOCTYPE svg PUBLIC "-//W3C//DTD SVG 1.1//EN" "http://www.w3.org/Graphics/SVG/1.1/DTD/svg11.dtd">
<svg width="24px" height="30px" version="1.1" xmlns="http://www.w3.org/2000/svg" xmlns:xlink="http://www.w3.org/1999/xlink" xml:space="preserve" style="fill-rule:evenodd;clip-rule:evenodd;stroke-linejoin:round;stroke-miterlimit:1.41421;">
    <g>
        <g id="Layer_1">
            <path d="M13.4104,6.0832C12.4734,5.9723 11.5266,5.9723 10.5896,6.0832L10.1675,7.966C9.27299,8.12936 8.40438,8.41159 7.58471,8.80519L6.13656,7.53008C5.31329,7.99113 4.54729,8.54766 3.8544,9.18816L4.6196,10.9595C3.99197,11.6174 3.45514,12.3563 3.02336,13.1565L1.10229,12.9761C0.707258,13.833 0.414669,14.7335 0.230588,15.6589L1.89079,16.6422C1.76975,17.5433 1.76975,18.4567 1.89079,19.3578L0.230588,20.3411C0.414669,21.2665 0.707258,22.167 1.10229,23.0239L3.02336,22.8435C3.45514,23.6438 3.99197,24.3826 4.6196,25.0406L3.8544,26.8119C4.54729,27.4524 5.31329,28.0089 6.13656,28.47L7.58471,27.1948C8.40438,27.5884 9.27299,27.8707 10.1675,28.034L10.5896,29.9168C11.5266,30.0277 12.4734,30.0277 13.4104,29.9168L13.8325,28.034C14.727,27.8707 15.5956,27.5884 16.4153,27.1948L17.8635,28.47C18.6867,28.0089 19.4527,27.4524 20.1456,26.8119L19.3804,25.0406C20.008,24.3826 20.5449,23.6438 20.9766,22.8435L22.8977,23.0239C23.2928,22.167 23.5853,21.2665 23.7694,20.3411L22.1092,19.3578C22.2303,18.4567 22.2303,17.5433 22.1092,16.6422L23.7694,15.6589C23.5853,14.7335 23.2928,13.833 22.8977,12.9761L20.9766,13.1565C20.5449,12.3563 20.008,11.6174 19.3804,10.9595L20.1456,9.18816C19.4527,8.54766 18.6867,7.99113 17.8635,7.53008L16.4153,8.80519C15.5956,8.41159 14.727,8.12936 13.8325,7.966ZM12,12.5754C14.996,12.5754 17.4247,15.0041 17.4247,18C17.4247,20.996 14.996,23.4247 12,23.4247C9.00405,23.4247 6.57535,20.996 6.57535,18C6.57535,15.0041 9.00405,12.5754 12,12.5754Z" style="fill:rgb(235,235,235);"/>
        </g>
    </g>
</svg>
